<svg xmlns="http://www.w3.org/2000/svg" width="1200" height="630" viewBox="0 0 1200 630" role="img" aria-labelledby="title desc">
  <title id="title">Werkelijke loopafstand naar restafvalcontainers in de gemeente Schagen</title>
  <desc id="desc">Kaartachtige preview met route, containers en afstandszones voor Warmenhuizen en Tuitjenhorn.</desc>
  <defs>
    <linearGradient id="sky" x1="0" y1="0" x2="1" y2="1">
      <stop offset="0" stop-color="#f8fafc"/>
      <stop offset="1" stop-color="#e0f2fe"/>
    </linearGradient>
    <filter id="shadow" x="-20%" y="-20%" width="140%" height="140%">
      <feDropShadow dx="0" dy="16" stdDeviation="18" flood-color="#0f172a" flood-opacity="0.16"/>
    </filter>
  </defs>
  <rect width="1200" height="630" fill="url(#sky)"/>
  <g opacity="0.7">
    <path d="M0 112H1200M0 232H1200M0 352H1200M0 472H1200M136 0V630M302 0V630M468 0V630M634 0V630M800 0V630M966 0V630" stroke="#cbd5e1" stroke-width="2"/>
    <path d="M-80 410C150 320 290 360 470 230S840 58 1280 126" fill="none" stroke="#94a3b8" stroke-width="54" stroke-linecap="round" opacity="0.35"/>
    <path d="M-70 418C160 328 300 368 480 238S850 66 1288 134" fill="none" stroke="#ffffff" stroke-width="34" stroke-linecap="round"/>
    <path d="M104 610C188 488 314 456 436 512S660 566 748 458 920 290 1220 330" fill="none" stroke="#94a3b8" stroke-width="42" stroke-linecap="round" opacity="0.3"/>
    <path d="M112 608C196 494 316 466 430 520S658 576 754 466 924 302 1214 340" fill="none" stroke="#ffffff" stroke-width="26" stroke-linecap="round"/>
  </g>
  <g filter="url(#shadow)">
    <rect x="72" y="72" width="558" height="486" rx="26" fill="#ffffff"/>
    <text x="118" y="152" fill="#0f172a" font-family="Arial, Helvetica, sans-serif" font-size="56" font-weight="800">Werkelijke</text>
    <text x="118" y="216" fill="#0f172a" font-family="Arial, Helvetica, sans-serif" font-size="56" font-weight="800">loopafstand</text>
    <text x="118" y="278" fill="#0f766e" font-family="Arial, Helvetica, sans-serif" font-size="38" font-weight="800">restafvalcontainers</text>
    <text x="118" y="340" fill="#334155" font-family="Arial, Helvetica, sans-serif" font-size="26" font-weight="600">Warmenhuizen en Tuitjenhorn</text>
    <text x="118" y="386" fill="#475569" font-family="Arial, Helvetica, sans-serif" font-size="24" font-weight="700">Bekijk wat je werkelijk moet lopen</text>
    <text x="118" y="420" fill="#475569" font-family="Arial, Helvetica, sans-serif" font-size="24" font-weight="700">om je restafval weg te brengen.</text>
    <g transform="translate(118 468)">
      <rect width="86" height="22" rx="11" fill="#15803d"/>
      <rect x="104" width="86" height="22" rx="11" fill="#facc15"/>
      <rect x="208" width="86" height="22" rx="11" fill="#f97316"/>
      <rect x="312" width="86" height="22" rx="11" fill="#dc2626"/>
      <rect x="416" width="86" height="22" rx="11" fill="#7f1d1d"/>
    </g>
  </g>
  <g>
    <path d="M714 454C778 392 834 382 886 318S944 188 1074 148" fill="none" stroke="#0284c7" stroke-width="15" stroke-linecap="round" stroke-dasharray="1 28"/>
    <circle cx="704" cy="462" r="30" fill="#ffffff" stroke="#0f766e" stroke-width="8"/>
    <circle cx="704" cy="462" r="11" fill="#0f766e"/>
    <g transform="translate(1042 116)">
      <path d="M34 0C15 0 0 15 0 34c0 27 34 68 34 68s34-41 34-68C68 15 53 0 34 0Z" fill="#dc2626"/>
      <circle cx="34" cy="34" r="15" fill="#ffffff"/>
    </g>
    <g transform="translate(838 286)">
      <rect x="-34" y="-46" width="68" height="92" rx="10" fill="#0f172a"/>
      <rect x="-21" y="-31" width="42" height="20" rx="3" fill="#e2e8f0"/>
      <rect x="-20" y="0" width="40" height="24" rx="3" fill="#22c55e"/>
    </g>
    <circle cx="918" cy="196" r="18" fill="#facc15" stroke="#ffffff" stroke-width="6"/>
    <circle cx="1010" cy="366" r="18" fill="#f97316" stroke="#ffffff" stroke-width="6"/>
    <circle cx="770" cy="312" r="18" fill="#15803d" stroke="#ffffff" stroke-width="6"/>
  </g>
</svg>
